<svg width="274" height="66" viewBox="0 0 274 66" fill="none" xmlns="http://www.w3.org/2000/svg"><path d="M268.556 64.455a2.663 2.663 0 0 1-.869-.141l.307-1.044c.233.062.44.09.622.08a.748.748 0 0 0 .482-.204c.142-.127.267-.336.375-.626l.157-.435-2.395-6.63h1.364l1.658 5.08h.068l1.658-5.08h1.367l-2.697 7.419c-.125.34-.284.629-.477.865a1.854 1.854 0 0 1-.691.537c-.267.119-.576.179-.929.179ZM262.088 58.114V62h-1.275v-6.545h1.223v1.065h.081c.151-.347.387-.625.708-.835.324-.21.731-.316 1.223-.316.446 0 .836.094 1.172.282.335.184.595.46.78.826.184.367.277.82.277 1.36V62h-1.275v-4.01c0-.474-.123-.845-.37-1.112-.248-.27-.587-.405-1.019-.405-.295 0-.558.064-.788.192a1.378 1.378 0 0 0-.541.562c-.131.245-.196.54-.196.887ZM255.885 62.145c-.414 0-.789-.077-1.125-.23a1.894 1.894 0 0 1-.796-.678c-.194-.295-.29-.657-.29-1.086 0-.37.071-.674.213-.912.142-.239.334-.428.575-.567.242-.14.512-.244.81-.315.298-.071.602-.125.912-.162l.954-.111c.245-.031.422-.081.533-.15.111-.067.166-.178.166-.332v-.03c0-.372-.105-.66-.315-.864-.208-.205-.517-.307-.929-.307-.429 0-.767.095-1.014.285-.245.188-.414.397-.507.627l-1.198-.273a2.31 2.31 0 0 1 .622-.963c.276-.247.593-.426.951-.537.358-.114.734-.17 1.129-.17.261 0 .538.03.831.093.295.06.571.17.826.332.259.163.471.394.635.695.165.298.248.686.248 1.163V62h-1.245v-.895h-.051a1.801 1.801 0 0 1-.371.486c-.164.16-.376.291-.635.396a2.46 2.46 0 0 1-.929.158Zm.277-1.023c.353 0 .654-.07.904-.209.253-.139.444-.32.575-.545.134-.227.2-.47.2-.729v-.844c-.045.046-.133.089-.264.128-.128.037-.274.07-.439.098-.164.026-.325.05-.481.073l-.392.051a3.173 3.173 0 0 0-.678.158c-.202.074-.363.18-.486.32-.119.136-.179.317-.179.545 0 .315.117.554.35.716.233.159.53.238.89.238ZM246.575 64.455v-9h1.245v1.06h.106c.074-.136.18-.293.32-.472.139-.18.332-.335.579-.47.247-.135.574-.204.98-.204.529 0 1 .134 1.415.401.415.267.74.652.976 1.155.239.503.358 1.108.358 1.815 0 .707-.118 1.314-.354 1.82-.236.503-.559.89-.971 1.163-.412.27-.882.405-1.411.405-.398 0-.723-.067-.976-.2a1.845 1.845 0 0 1-.588-.47 3.58 3.58 0 0 1-.328-.476h-.077v3.473h-1.274Zm1.249-5.728c0 .46.067.864.2 1.21.134.347.327.619.58.815.252.193.562.29.929.29.38 0 .698-.102.954-.303.256-.205.449-.482.58-.831.133-.35.2-.743.2-1.18 0-.433-.065-.82-.196-1.164a1.779 1.779 0 0 0-.58-.814c-.255-.199-.575-.298-.958-.298-.37 0-.682.095-.938.285-.253.19-.445.456-.575.797-.131.341-.196.739-.196 1.193ZM235.97 62v-6.545h1.223v1.065h.081c.136-.36.359-.642.669-.844.309-.204.68-.307 1.112-.307.437 0 .804.103 1.099.307.299.205.519.486.661.844h.068a1.84 1.84 0 0 1 .746-.835c.341-.21.747-.316 1.219-.316.593 0 1.078.187 1.453.559.378.372.566.933.566 1.683V62h-1.274v-4.27c0-.444-.12-.765-.362-.964a1.317 1.317 0 0 0-.865-.298c-.415 0-.737.128-.967.383-.23.253-.345.579-.345.976V62h-1.27v-4.35c0-.356-.111-.641-.333-.857-.221-.216-.51-.324-.865-.324a1.24 1.24 0 0 0-.669.192c-.202.125-.365.3-.49.524a1.608 1.608 0 0 0-.183.78V62h-1.274ZM231.496 62.132c-.613 0-1.149-.14-1.606-.422a2.841 2.841 0 0 1-1.065-1.18c-.253-.506-.38-1.097-.38-1.773 0-.679.127-1.273.38-1.781a2.835 2.835 0 0 1 1.065-1.185c.457-.281.993-.422 1.606-.422.614 0 1.15.141 1.607.422.457.282.812.676 1.065 1.185.253.508.38 1.102.38 1.781 0 .676-.127 1.267-.38 1.773s-.608.899-1.065 1.18c-.457.282-.993.422-1.607.422Zm.005-1.07c.397 0 .727-.104.988-.315.262-.21.455-.49.58-.84.128-.349.192-.734.192-1.154 0-.418-.064-.801-.192-1.15a1.87 1.87 0 0 0-.58-.849c-.261-.213-.591-.32-.988-.32-.401 0-.733.107-.997.32a1.901 1.901 0 0 0-.584.848c-.125.35-.188.733-.188 1.15 0 .421.063.806.188 1.156.128.35.322.629.584.84.264.21.596.315.997.315ZM227.265 56.111h-1.329a2.034 2.034 0 0 0-.797-1.3 2.21 2.21 0 0 0-.678-.34 2.644 2.644 0 0 0-.788-.116c-.503 0-.953.127-1.351.38-.395.252-.707.623-.937 1.112-.228.488-.341 1.085-.341 1.79 0 .71.113 1.31.341 1.798.23.488.544.858.941 1.108.398.25.845.375 1.343.375.275 0 .537-.037.784-.111.25-.077.476-.189.677-.337a2.04 2.04 0 0 0 .806-1.283l1.329.005a3.572 3.572 0 0 1-.413 1.185 3.279 3.279 0 0 1-.78.929 3.523 3.523 0 0 1-1.082.6c-.407.142-.85.214-1.33.214-.756 0-1.429-.18-2.02-.537-.591-.361-1.057-.877-1.398-1.547-.338-.67-.507-1.47-.507-2.4 0-.931.171-1.731.512-2.399.341-.67.807-1.184 1.397-1.542.591-.361 1.263-.541 2.016-.541.463 0 .895.066 1.296.2.403.13.765.324 1.086.58.321.252.587.562.797.928.21.364.352.78.426 1.249ZM215.025 53.273V62h-1.274v-8.727h1.274ZM208.823 62.145c-.415 0-.79-.077-1.125-.23a1.897 1.897 0 0 1-.797-.678c-.193-.295-.29-.657-.29-1.086 0-.37.071-.674.213-.912a1.57 1.57 0 0 1 .576-.567c.241-.14.511-.244.809-.315.299-.071.603-.125.912-.162l.955-.111c.244-.031.422-.081.532-.15.111-.067.167-.178.167-.332v-.03c0-.372-.105-.66-.316-.864-.207-.205-.517-.307-.929-.307-.429 0-.767.095-1.014.285a1.532 1.532 0 0 0-.507.627l-1.197-.273a2.3 2.3 0 0 1 .622-.963c.275-.247.592-.426.95-.537.358-.114.734-.17 1.129-.17.262 0 .539.03.831.093.296.06.571.17.827.332.259.163.47.394.635.695.165.298.247.686.247 1.163V62h-1.244v-.895h-.051a1.822 1.822 0 0 1-.371.486c-.165.16-.377.291-.635.396a2.464 2.464 0 0 1-.929.158Zm.277-1.023c.352 0 .653-.07.903-.209.253-.139.445-.32.576-.545.133-.227.2-.47.2-.729v-.844a.671.671 0 0 1-.264.128c-.128.037-.274.07-.439.098l-.482.073-.392.051a3.149 3.149 0 0 0-.677.158c-.202.074-.364.18-.486.32-.119.136-.179.317-.179.545 0 .315.116.554.349.716.233.159.53.238.891.238ZM202.372 62v-6.545h1.232v1.04h.068a1.58 1.58 0 0 1 .63-.831 1.807 1.807 0 0 1 1.032-.307 5.433 5.433 0 0 1 .541.03v1.218a2.264 2.264 0 0 0-.273-.047 2.59 2.59 0 0 0-.392-.03c-.301 0-.569.065-.805.192a1.422 1.422 0 0 0-.759 1.283V62h-1.274ZM197.767 62v-6.545h1.231v1.04h.068c.12-.353.33-.63.631-.831a1.806 1.806 0 0 1 1.031-.307 5.37 5.37 0 0 1 .541.03v1.218a2.276 2.276 0 0 0-.272-.047 2.61 2.61 0 0 0-.392-.03c-.301 0-.57.065-.806.192a1.428 1.428 0 0 0-.758 1.283V62h-1.274ZM193.545 62.132c-.645 0-1.201-.138-1.666-.413a2.799 2.799 0 0 1-1.074-1.172c-.25-.506-.375-1.098-.375-1.777 0-.67.125-1.261.375-1.773.253-.511.605-.91 1.057-1.197.454-.287.985-.43 1.593-.43.37 0 .728.06 1.074.183.347.122.658.314.933.575.276.261.493.6.652 1.018.159.415.239.92.239 1.513v.452h-5.203v-.955h3.954c0-.335-.068-.632-.204-.89a1.551 1.551 0 0 0-.575-.618 1.611 1.611 0 0 0-.861-.226c-.358 0-.671.088-.938.264-.264.173-.468.4-.613.682-.142.278-.213.58-.213.908v.745c0 .438.076.81.23 1.117.156.307.373.541.652.703.278.16.603.239.976.239.241 0 .461-.035.66-.103a1.372 1.372 0 0 0 .848-.83l1.206.217c-.097.355-.27.666-.52.933-.247.264-.558.47-.933.618a3.492 3.492 0 0 1-1.274.217ZM189.667 55.455v1.022h-3.699v-1.022h3.699ZM186.982 62v-7.304c0-.409.089-.748.268-1.018a1.65 1.65 0 0 1 .712-.61c.296-.136.617-.204.963-.204.256 0 .475.021.656.064.182.04.317.076.405.11l-.298 1.032a6.177 6.177 0 0 0-.23-.06 1.315 1.315 0 0 0-.341-.038c-.31 0-.531.076-.665.23-.131.153-.196.375-.196.665V62h-1.274ZM182.33 62.132c-.645 0-1.2-.138-1.666-.413a2.805 2.805 0 0 1-1.074-1.172c-.25-.506-.375-1.098-.375-1.777 0-.67.125-1.261.375-1.773.253-.511.605-.91 1.057-1.197.454-.287.985-.43 1.593-.43.37 0 .728.06 1.074.183.347.122.658.314.934.575.275.261.492.6.652 1.018.159.415.238.92.238 1.513v.452h-5.203v-.955h3.955c0-.335-.069-.632-.205-.89a1.544 1.544 0 0 0-.575-.618 1.611 1.611 0 0 0-.861-.226c-.358 0-.671.088-.938.264-.264.173-.468.4-.613.682-.142.278-.213.58-.213.908v.745c0 .438.076.81.23 1.117.156.307.373.541.652.703.278.16.604.239.976.239.241 0 .461-.035.66-.103a1.36 1.36 0 0 0 .848-.83l1.206.217c-.096.355-.27.666-.52.933-.247.264-.558.47-.933.618a3.492 3.492 0 0 1-1.274.217ZM171.958 62v-8.727h3.111c.676 0 1.237.116 1.683.35a2.32 2.32 0 0 1 1.006.967c.221.409.332.882.332 1.418 0 .535-.112 1.005-.337 1.411a2.26 2.26 0 0 1-1.005.942c-.446.224-1.007.336-1.683.336h-2.357v-1.133h2.237c.426 0 .773-.061 1.04-.183.27-.123.467-.3.592-.533.125-.233.188-.513.188-.84 0-.329-.064-.615-.192-.856a1.237 1.237 0 0 0-.592-.554c-.267-.13-.618-.196-1.053-.196h-1.653V62h-1.317Zm4.308-3.938L178.422 62h-1.5l-2.113-3.938h1.457ZM256.782 39.764h1.161l1.555 3.794h.061l1.554-3.794h1.161V45h-.91v-3.597h-.049l-1.447 3.582h-.68l-1.447-3.59h-.049V45h-.91v-5.236ZM251.583 40.559v-.795h4.178v.795h-1.619V45h-.941v-4.441h-1.618ZM250.743 42.455v1.022h-3.575v-1.022h3.575Zm-2.616-1.569h1.274v6.192c0 .247.037.433.111.558a.58.58 0 0 0 .285.252c.12.043.249.064.388.064.102 0 .192-.007.268-.021l.179-.035.231 1.053a2.138 2.138 0 0 1-.316.085 2.487 2.487 0 0 1-.511.051 2.247 2.247 0 0 1-.938-.179 1.612 1.612 0 0 1-.703-.58c-.179-.26-.268-.589-.268-.984v-6.456ZM241.744 45.114V49h-1.274v-8.727h1.257v3.247h.081a1.88 1.88 0 0 1 .703-.84c.315-.207.727-.31 1.236-.31.449 0 .841.092 1.176.276.338.185.599.46.784.827.187.364.281.818.281 1.364V49h-1.274v-4.01c0-.48-.124-.852-.371-1.116-.247-.268-.591-.401-1.031-.401a1.69 1.69 0 0 0-.81.192 1.39 1.39 0 0 0-.558.562c-.133.245-.2.54-.2.887ZM235.807 51.591c-.52 0-.967-.068-1.342-.205a2.602 2.602 0 0 1-.912-.54 2.26 2.26 0 0 1-.528-.738l1.095-.452c.076.125.179.257.306.397.131.142.307.262.529.362.224.1.513.149.865.149.483 0 .882-.118 1.197-.354.316-.233.473-.605.473-1.116v-1.287h-.081a2.85 2.85 0 0 1-.332.464c-.142.17-.338.319-.588.444-.25.125-.575.187-.976.187-.517 0-.983-.12-1.398-.362-.412-.245-.738-.604-.98-1.078-.238-.478-.358-1.064-.358-1.76s.118-1.293.354-1.79c.239-.497.565-.878.98-1.142a2.55 2.55 0 0 1 1.411-.4c.406 0 .734.068.984.204.25.134.445.29.584.469.142.179.251.336.328.473h.094v-1.061h1.248v6.69c0 .563-.13 1.024-.392 1.385-.261.36-.615.628-1.061.801a4.09 4.09 0 0 1-1.5.26Zm-.013-3.746c.367 0 .677-.085.929-.255.256-.174.449-.42.58-.742.133-.324.2-.712.2-1.163 0-.44-.065-.828-.196-1.164a1.729 1.729 0 0 0-.575-.784c-.253-.19-.565-.285-.938-.285-.383 0-.703.1-.958.298a1.8 1.8 0 0 0-.58.801 3.18 3.18 0 0 0-.192 1.134c0 .429.066.805.196 1.129.131.324.324.577.58.758.258.182.577.273.954.273ZM230.075 49v-6.545h1.274V49h-1.274Zm.643-7.555a.813.813 0 0 1-.571-.222.721.721 0 0 1-.234-.537c0-.21.078-.39.234-.537.16-.15.35-.226.571-.226.222 0 .411.076.567.226a.706.706 0 0 1 .239.537c0 .208-.08.386-.239.537a.795.795 0 0 1-.567.222ZM225.853 49.132c-.645 0-1.2-.138-1.666-.413a2.805 2.805 0 0 1-1.074-1.172c-.25-.506-.375-1.098-.375-1.777 0-.67.125-1.261.375-1.773.253-.511.605-.91 1.057-1.197.455-.287.986-.43 1.594-.43.369 0 .727.06 1.074.183.346.122.657.314.933.575.276.261.493.6.652 1.018.159.415.239.92.239 1.513v.452h-5.204v-.955h3.955c0-.335-.068-.632-.205-.89a1.544 1.544 0 0 0-.575-.618 1.606 1.606 0 0 0-.861-.226c-.358 0-.67.088-.937.264-.264.173-.469.4-.614.682-.142.278-.213.58-.213.908v.745c0 .438.077.81.23 1.117.157.307.374.541.652.703.279.16.604.239.976.239.242 0 .462-.035.661-.103a1.374 1.374 0 0 0 .848-.83l1.206.217c-.097.355-.27.666-.52.933-.247.264-.559.47-.934.618a3.488 3.488 0 0 1-1.274.217ZM213.757 49l-2.42-8.727h1.385l1.7 6.758h.081l1.769-6.758h1.372l1.768 6.762h.081l1.696-6.762h1.389L220.154 49h-1.326l-1.836-6.537h-.068L215.087 49h-1.33ZM206.884 49.128c-.528 0-1-.135-1.415-.405-.411-.273-.735-.66-.971-1.163-.233-.506-.35-1.113-.35-1.82 0-.707.118-1.313.354-1.815.239-.503.565-.888.98-1.155a2.55 2.55 0 0 1 1.411-.4c.406 0 .733.068.98.204.25.133.443.29.579.469.14.179.248.336.324.473h.077v-3.243h1.274V49h-1.244v-1.019h-.107a3.3 3.3 0 0 1-.332.478 1.845 1.845 0 0 1-.588.468c-.25.134-.574.2-.972.2Zm.281-1.087c.367 0 .677-.096.929-.29.256-.196.449-.467.58-.813.134-.347.2-.75.2-1.21 0-.455-.065-.853-.196-1.194a1.746 1.746 0 0 0-.575-.797c-.253-.19-.565-.285-.938-.285-.383 0-.703.1-.958.298-.256.199-.449.47-.58.814a3.316 3.316 0 0 0-.192 1.163c0 .438.066.831.196 1.18.131.35.324.627.58.832.258.201.577.302.954.302ZM198.537 45.114V49h-1.274v-6.545h1.223v1.065h.081c.15-.347.386-.625.707-.835.324-.21.732-.316 1.223-.316.446 0 .837.094 1.172.282.335.184.595.46.78.826.184.367.277.82.277 1.36V49h-1.274v-4.01c0-.474-.124-.845-.371-1.112-.247-.27-.587-.405-1.019-.405-.295 0-.558.064-.788.192a1.378 1.378 0 0 0-.541.562c-.131.245-.196.54-.196.887ZM194.274 49v-6.545h1.274V49h-1.274Zm.644-7.555a.81.81 0 0 1-.571-.222.719.719 0 0 1-.235-.537c0-.21.078-.39.235-.537a.8.8 0 0 1 .571-.226c.221 0 .41.076.566.226.16.148.239.327.239.537a.712.712 0 0 1-.239.537.794.794 0 0 1-.566.222ZM192.56 40.273V49h-1.274v-8.727h1.274ZM183.536 49v-8.727h3.196c.619 0 1.132.102 1.539.306.406.202.71.476.911.823.202.344.303.731.303 1.163 0 .364-.067.67-.2.92a1.658 1.658 0 0 1-.537.597 2.372 2.372 0 0 1-.733.324v.086c.29.014.572.107.848.28.278.171.508.414.69.73.182.315.273.698.273 1.15 0 .446-.105.847-.315 1.202-.208.352-.529.632-.964.84-.434.204-.99.306-1.666.306h-3.345Zm1.317-1.13h1.9c.631 0 1.083-.121 1.356-.366.272-.244.409-.55.409-.916 0-.276-.07-.528-.209-.758a1.489 1.489 0 0 0-.597-.55 1.908 1.908 0 0 0-.912-.205h-1.947v2.796Zm0-3.822h1.764c.296 0 .561-.056.797-.17a1.39 1.39 0 0 0 .567-.477c.142-.208.213-.452.213-.733 0-.361-.127-.664-.379-.908-.253-.244-.641-.367-1.164-.367h-1.798v2.655ZM172.696 49h-1.398l3.14-8.727h1.522L179.1 49h-1.397l-2.468-7.142h-.068L172.696 49Zm.234-3.418h4.534v1.108h-4.534v-1.108Z" fill="#1C3C70"/><path fill-rule="evenodd" clip-rule="evenodd" d="M23.103 36.04c-3.71-3.658-3.73-9.64-.04-13.334 3.687-3.694 9.71-3.724 13.42-.068 3.71 3.659 3.73 9.64.04 13.334-3.687 3.694-9.71 3.724-13.42.068Z" fill="#57D188"/><path fill-rule="evenodd" clip-rule="evenodd" d="m44.041 40.225-2.973-2.93a13.595 13.595 0 0 0 2.573-8.023 13.567 13.567 0 0 0-4.078-9.685 13.753 13.753 0 0 0-9.784-3.973 13.801 13.801 0 0 0-9.758 4.069 13.627 13.627 0 0 0-4.017 9.726 13.566 13.566 0 0 0 4.078 9.685 13.748 13.748 0 0 0 9.784 3.973 13.813 13.813 0 0 0 8.032-2.602l2.564 2.527v15.961H19.847V40.225H1V19.728h18.844V1H40.46v18.728h18.844v20.497H44.041Z" fill="#57D188"/><path d="M86.18 7.193c-5.165 0-8.739 3.822-8.739 9.267 0 5.445 3.728 9.23 8.777 9.23 3.029 0 5.556-1.35 6.993-3.475l3.883 3.283c-2.137 3.205-6.37 5.175-11.03 5.175-8.39 0-14.138-5.908-14.138-14.21s5.748-14.21 14.1-14.21c4.66 0 8.776 1.93 11.07 5.134l-3.883 3.205c-1.475-2.086-3.923-3.399-7.03-3.399h-.003ZM99.9 29.975V2.945h5.438v22.397h12.625v4.633H99.899Zm20.648 0V2.945h5.439v27.03h-5.439Zm27.401 0c-.7-6.41-7.031-10.31-11.537-15.755v15.755h-5.437V2.945h5.515c.621 7.143 6.993 11.043 11.575 16.45V2.946h5.439v27.03h-5.555Zm10.612 0V2.945H164v27.03h-5.439Zm23.264-22.782c-5.165 0-8.739 3.822-8.739 9.267 0 5.445 3.728 9.23 8.777 9.23 3.029 0 5.556-1.35 6.993-3.475l3.883 3.283c-2.137 3.205-6.37 5.175-11.03 5.175-8.39 0-14.138-5.908-14.138-14.21s5.748-14.21 14.099-14.21c4.661 0 8.778 1.93 11.071 5.134l-3.883 3.205c-1.475-2.086-3.923-3.399-7.03-3.399h-.003Zm13.694 22.782V2.945h5.439v27.03h-5.439Zm26.914 0-1.087-2.625h-11.537l-1.05 2.625h-5.748l11.77-27.453h1.633l11.77 27.453h-5.751Zm-6.835-16.72-3.962 9.653h7.923l-3.961-9.653Zm31.694 16.72c-.7-6.41-7.031-10.31-11.537-15.755v15.755h-5.44V2.945h5.516c.621 7.143 6.99 11.043 11.575 16.45V2.946h5.439v27.03h-5.556.003ZM81.869 42.047c-2.099 0-3.457 1.003-3.457 2.394 0 5.212 13.945 3.01 13.945 12.935 0 5.06-3.962 8.456-10.06 8.456-4.233 0-8.118-1.623-10.72-4.402l3.261-3.59c1.475 1.776 4.233 3.358 7.38 3.358 3.148 0 4.7-1.544 4.7-3.63 0-5.868-13.945-3.631-13.945-12.974 0-4.324 3.573-7.027 8.584-7.027 3.845 0 7.457 1.582 8.818 3.863l-3.42 3.358c-.62-1.121-2.448-2.741-5.089-2.741h.003Zm32.475 18.534v4.634h-18.76v-27.03h18.76v4.633H101.02v8.224l12.662-3.359v4.634l-12.662 3.358v4.904h13.324v.002Zm23.048 0v4.634h-18.76v-27.03h18.76v4.633h-13.323v8.224l12.662-3.359v4.634l-12.662 3.358v4.904h13.323v.002Zm20.097-10.58-1.088.502 8.002 14.712h-5.982l-6.719-12.588-4.582 2.046v10.542h-5.439v-27.03h5.439v11.159l7.73-3.321c1.321-.542 1.866-1.313 1.866-2.434v-5.407h5.165v5.29c0 3.206-1.67 5.33-4.39 6.527l-.002.002Z" fill="#57D188"/><path d="M24.272 26.924a1.11 1.11 0 0 1-.502-.194c-.464-.33-.56-.947-.216-1.378 1.57-1.965 4.17-2.986 6.783-2.663 2.534.312 4.704 1.801 5.804 3.983.248.494.028 1.076-.494 1.303-.523.227-1.146.01-1.397-.484-.788-1.562-2.342-2.63-4.157-2.855-1.87-.232-3.733.5-4.856 1.908-.23.29-.603.42-.963.378l-.002.002Z" fill="#fff"/><path fill-rule="evenodd" clip-rule="evenodd" d="M29.795 28.179c1.956 0 3.54 1.577 3.54 3.52 0 1.942-1.586 3.52-3.54 3.52-1.955 0-3.541-1.578-3.541-3.52 0-1.943 1.586-3.52 3.54-3.52Z" fill="#fff"/></svg>