<svg width="35" height="36" viewBox="0 0 35 36" fill="none" xmlns="http://www.w3.org/2000/svg"><g clip-path="url(#clip0_179_3868)" fill-rule="evenodd" clip-rule="evenodd"><path d="M7.53 17.51c0-1.111.185-2.177.515-3.176L2.278 9.93A17.103 17.103 0 0 0 .52 17.51c0 2.725.632 5.295 1.754 7.575l5.764-4.412a10.124 10.124 0 0 1-.509-3.163Z" fill="#FBBC05"/><path d="M17.656 7.4c2.414 0 4.595.855 6.309 2.255l4.984-4.978C25.912 2.033 22.017.399 17.656.399A17.085 17.085 0 0 0 2.277 9.93l5.767 4.404a10.098 10.098 0 0 1 9.612-6.935Z" fill="#EB4335"/><path d="M17.656 27.621a10.098 10.098 0 0 1-9.612-6.934L2.277 25.09a17.084 17.084 0 0 0 15.379 9.531c4.18 0 8.17-1.484 11.164-4.264l-5.474-4.232c-1.544.973-3.49 1.496-5.69 1.496Z" fill="#34A853"/><path d="M34.013 17.51c0-1.01-.156-2.1-.39-3.11H17.656v6.61h9.191c-.46 2.254-1.71 3.987-3.5 5.115l5.474 4.232c3.146-2.92 5.192-7.27 5.192-12.847Z" fill="#4285F4"/></g><defs><clipPath id="clip0_179_3868"><path fill="#fff" transform="translate(0 .01)" d="M0 0h35v35H0z"/></clipPath></defs></svg>