<svg width="11" height="15" viewBox="0 0 11 15" fill="none" xmlns="http://www.w3.org/2000/svg">
<path fill-rule="evenodd" clip-rule="evenodd" d="M0 5.5C0 2.4673 2.4673 0 5.5 0C8.5327 0 11 2.4673 11 5.5C11 7.45439 10.403 8.24179 7.53427 12.0255L7.53427 12.0255C7.03961 12.678 6.47897 13.4174 5.83849 14.2717C5.75859 14.3783 5.63321 14.441 5.50003 14.441C5.36684 14.441 5.24144 14.3783 5.16154 14.2718C4.51973 13.4161 3.95849 12.6762 3.4631 12.0232L3.45741 12.0157C0.595551 8.24289 0 7.45778 0 5.5ZM5.49992 13.3135C6.00307 12.6446 6.45376 12.0502 6.86002 11.5143L6.86005 11.5143C9.65095 7.83318 10.1538 7.16988 10.1538 5.5C10.1538 2.93387 8.06613 0.846154 5.5 0.846154C2.93387 0.846154 0.846154 2.93387 0.846154 5.5C0.846154 7.17316 1.34775 7.83443 4.13154 11.5043C4.54007 12.0428 4.99332 12.6403 5.49992 13.3135ZM2.53906 5.49999C2.53906 3.867 3.86761 2.53845 5.5006 2.53845C7.13359 2.53845 8.46214 3.867 8.46214 5.49999C8.46214 7.13298 7.13359 8.46153 5.5006 8.46153C3.86761 8.46153 2.53906 7.13298 2.53906 5.49999ZM3.38522 5.49999C3.38522 6.66641 4.33418 7.61538 5.5006 7.61538C6.66702 7.61538 7.61599 6.66641 7.61599 5.49999C7.61599 4.33357 6.66702 3.38461 5.5006 3.38461C4.33418 3.38461 3.38522 4.33357 3.38522 5.49999Z" fill="#828282"/>
</svg>
