<svg width="25" height="25" viewBox="0 0 25 25" fill="none" xmlns="http://www.w3.org/2000/svg">
<g clip-path="url(#clip0_165_75)">
<path d="M21.9481 2.98727H3.05711C1.37078 2.98727 0 4.35806 0 6.04438V18.9556C0 20.6419 1.37078 22.0127 3.05711 22.0127H21.9429C23.6292 22.0127 25 20.6419 25 18.9556V6.04955C25.0052 4.36323 23.6344 2.98727 21.9481 2.98727ZM23.6085 18.9556C23.6085 19.8712 22.8636 20.6161 21.9481 20.6161H3.05711C2.14153 20.6161 1.39665 19.8712 1.39665 18.9556V6.04955C1.39665 5.13397 2.14153 4.38909 3.05711 4.38909H21.9429C22.8585 4.38909 23.6034 5.13397 23.6034 6.04955V18.9556H23.6085Z" fill="#82C29B"/>
<path d="M15.7664 12.3396L21.8807 6.85651C22.1652 6.59787 22.191 6.15818 21.9324 5.86851C21.6738 5.58401 21.2341 5.55814 20.9444 5.81678L12.5128 13.3845L10.8678 11.9155C10.8627 11.9103 10.8575 11.9051 10.8575 11.9C10.8213 11.8637 10.7851 11.8327 10.7437 11.8017L4.05013 5.81161C3.76045 5.55297 3.32077 5.57883 3.06213 5.86851C2.80349 6.15818 2.82935 6.59787 3.11903 6.85651L9.30566 12.3862L3.14489 18.1538C2.86556 18.4177 2.85004 18.8573 3.11385 19.1418C3.25352 19.2867 3.43974 19.3643 3.62596 19.3643C3.79666 19.3643 3.96736 19.3022 4.10185 19.178L10.3557 13.3276L12.0524 14.8433C12.1869 14.9622 12.3524 15.0191 12.518 15.0191C12.6835 15.0191 12.8542 14.9571 12.9835 14.8381L14.7267 13.2759L20.9444 19.1832C21.0789 19.3125 21.2548 19.3746 21.4255 19.3746C21.6117 19.3746 21.7927 19.3022 21.9324 19.1574C22.1962 18.878 22.1859 18.4332 21.9065 18.1694L15.7664 12.3396Z" fill="#82C29B"/>
</g>
<defs>
<clipPath id="clip0_165_75">
<rect width="25" height="25" fill="white"/>
</clipPath>
</defs>
</svg>
