<svg width="21" height="21" viewBox="0 0 21 21" fill="none" xmlns="http://www.w3.org/2000/svg">
<g clip-path="url(#clip0_165_44)">
<path d="M20.4605 16.3197L16.981 12.8402C16.2599 12.1191 15.0927 12.119 14.3715 12.8402L13.5016 13.7101C12.782 14.4296 11.6114 14.4295 10.8891 13.7073L7.24604 10.1124C6.52654 9.39291 6.52654 8.22233 7.24604 7.50283L8.1159 6.63297C8.83539 5.91352 8.83539 4.74289 8.1159 4.02339L4.6365 0.543955C3.917 -0.175541 2.74629 -0.175459 2.02692 0.543955L1.15714 1.41381C0.0280658 2.54285 -0.303997 5.03217 0.290525 7.91024C0.669427 9.7445 1.7595 13.2761 4.80306 16.3196C7.84048 19.3571 11.3434 20.3995 13.1611 20.7505C15.1591 21.1363 18.1617 21.2279 19.5906 19.7991L20.4605 18.9292C21.1799 18.2098 21.1799 17.0391 20.4605 16.3197ZM2.89686 1.41381C3.13672 1.174 3.52686 1.17396 3.76676 1.41381L7.2462 4.89325C7.48606 5.13311 7.48606 5.52329 7.2462 5.76315L6.81344 6.19591L2.46407 1.84661L2.89686 1.41381ZM13.3944 19.5427C11.7149 19.2184 8.47847 18.2554 5.67292 15.4498C2.85597 12.6328 1.84637 9.36096 1.49528 7.6614C1.0302 5.41013 1.22384 3.71787 1.67542 2.79764L5.98686 7.10912C5.19562 8.30288 5.32564 9.93169 6.37913 10.9851L10.0222 14.58C11.0727 15.6304 12.7005 15.7612 13.8953 14.9694L18.2103 19.2844C16.8954 19.9512 14.8505 19.8238 13.3944 19.5427ZM19.5906 18.0593L19.1578 18.4921L14.8085 14.1429L15.2413 13.7101C15.4816 13.4697 15.8707 13.4697 16.1112 13.7101L19.5906 17.1896C19.8304 17.4293 19.8304 17.8196 19.5906 18.0593Z" fill="#82C29B"/>
<path d="M11.7733 0.00471497C11.4336 0.00471497 11.1582 0.280094 11.1582 0.619785C11.1582 0.959477 11.4336 1.23486 11.7733 1.23486C16.1823 1.23486 19.7693 4.82188 19.7693 9.23089C19.7693 9.57058 20.0447 9.84596 20.3844 9.84596C20.7241 9.84596 20.9995 9.57058 20.9995 9.23089C20.9995 4.14356 16.8606 0.00471497 11.7733 0.00471497Z" fill="#82C29B"/>
<path d="M11.7733 2.46504C11.4336 2.46504 11.1582 2.74042 11.1582 3.08011C11.1582 3.4198 11.4336 3.69518 11.7733 3.69518C14.8257 3.69518 17.309 6.17852 17.309 9.2309C17.309 9.57059 17.5844 9.84597 17.9241 9.84597C18.2638 9.84597 18.5391 9.57059 18.5391 9.2309C18.5391 5.5002 15.504 2.46504 11.7733 2.46504Z" fill="#82C29B"/>
<path d="M11.7733 4.92535C11.4336 4.92535 11.1582 5.20073 11.1582 5.54042C11.1582 5.88012 11.4336 6.15549 11.7733 6.15549C13.4691 6.15549 14.8487 7.5351 14.8487 9.23089C14.8487 9.57058 15.124 9.84596 15.4637 9.84596C15.8034 9.84596 16.0788 9.57058 16.0788 9.23089C16.0788 6.85682 14.1473 4.92535 11.7733 4.92535Z" fill="#82C29B"/>
<path d="M11.7733 7.38568C11.4336 7.38568 11.1582 7.66106 11.1582 8.00075C11.1582 8.34044 11.4336 8.61582 11.7733 8.61582C12.1124 8.61582 12.3883 8.89173 12.3883 9.23089C12.3883 9.57058 12.6637 9.84596 13.0034 9.84596C13.3431 9.84596 13.6185 9.57058 13.6185 9.23089C13.6185 8.21342 12.7907 7.38568 11.7733 7.38568Z" fill="#82C29B"/>
</g>
<defs>
<clipPath id="clip0_165_44">
<rect width="21" height="21" fill="white"/>
</clipPath>
</defs>
</svg>
