<svg width="5038" height="1053" viewBox="0 0 5038 1053" fill="none" xmlns="http://www.w3.org/2000/svg"><path d="M2144 730.349c-137.6-28.226-249.33 1.176-288 19.405-28.33 14.082-154 91.735-280.5 73.746-234.81-33.391-255.5-194-661-246.5-324.862-42.06-419.5-340.5-575-398.5C215.1 132.1 61.333 40.167 0 0h5037.5c-116 231.167-425.5 338-633.5 530-126 116.308-235.5 422.182-443 413.5-232.17-9.714-311.5-23.601-433 0-55.6 10.8-131.5 88.71-234 104.39-196 29.99-288-79.384-392-137.6-104-58.216-218-77.622-382-68.801-164 8.82-204-75.858-376-111.14Z" fill="#E0FEE1"/></svg>