<svg width="22" height="22" viewBox="0 0 22 22" fill="none" xmlns="http://www.w3.org/2000/svg">
<g clip-path="url(#clip0_165_95)">
<path d="M19.9662 4.65038C19.9659 4.64329 19.9651 4.6362 19.9639 4.62915C19.9364 4.58987 19.9026 4.55607 19.8743 4.51757C19.6689 4.23777 19.4514 3.96846 19.222 3.70961C19.1591 3.63887 19.0962 3.56892 19.0318 3.49975C18.7955 3.2467 18.5476 3.00539 18.2883 2.77592C18.2403 2.73346 18.1955 2.68948 18.1476 2.64781C17.5084 2.10021 16.8085 1.62763 16.0617 1.23942C16.0318 1.22372 16.0004 1.21037 15.9697 1.19462C15.6371 1.02561 15.2961 0.873686 14.948 0.739539C14.8694 0.711264 14.7979 0.684508 14.7232 0.66093C14.4136 0.549348 14.0992 0.451628 13.7801 0.367768C13.6858 0.342625 13.5915 0.316698 13.4956 0.294685C13.1812 0.221602 12.8669 0.165788 12.5454 0.120198C12.4479 0.10606 12.352 0.0871791 12.2538 0.07539C11.4258 -0.0252317 10.5887 -0.0252317 9.76075 0.07539C9.66252 0.0871791 9.56664 0.10606 9.46916 0.120198C9.14772 0.165788 8.8302 0.221602 8.51894 0.294685C8.42306 0.316698 8.32874 0.342625 8.23443 0.367768C7.91323 0.451582 7.59888 0.549302 7.29131 0.66093C7.2127 0.68764 7.14118 0.714395 7.06653 0.739539C6.71843 0.873686 6.37738 1.02556 6.04479 1.19462C6.01412 1.21032 5.98272 1.22367 5.95283 1.23942C5.20353 1.62722 4.5013 2.09975 3.85985 2.64781C3.81191 2.68944 3.76711 2.73346 3.71917 2.77592C3.45718 3.00645 3.20933 3.24776 2.97567 3.49975C2.91125 3.56892 2.84834 3.63887 2.78548 3.70961C2.55545 3.96791 2.338 4.23721 2.13317 4.51753C2.10489 4.55603 2.07109 4.58983 2.04355 4.62911C2.03996 4.63597 2.03678 4.64306 2.03411 4.65034C-0.676735 8.44942 -0.676735 13.5505 2.03411 17.3495C2.03678 17.3568 2.03991 17.3639 2.04355 17.3708C2.07104 17.41 2.10484 17.4438 2.13317 17.4823C2.33805 17.7621 2.55545 18.0315 2.78548 18.2903C2.84834 18.361 2.91125 18.431 2.97567 18.5002C3.21251 18.7532 3.46031 18.9945 3.71917 19.224C3.76711 19.2665 3.81191 19.3104 3.85985 19.3521C4.49904 19.8997 5.19893 20.3723 5.94574 20.7605C5.97563 20.7762 6.00703 20.7895 6.0377 20.8053C6.37028 20.9743 6.71129 21.1262 7.05944 21.2604C7.13805 21.2887 7.20956 21.3154 7.28421 21.339C7.59386 21.4506 7.90825 21.5483 8.22734 21.6321C8.32165 21.6573 8.41597 21.6832 8.51184 21.7052C8.82624 21.7783 9.14058 21.8341 9.46206 21.8797C9.55951 21.8939 9.65539 21.9127 9.75366 21.9245C10.5816 22.0251 11.4187 22.0251 12.2467 21.9245C12.3449 21.9127 12.4408 21.8939 12.5383 21.8797C12.8597 21.8341 13.1772 21.7783 13.4885 21.7052C13.5844 21.6832 13.6787 21.6573 13.773 21.6321C14.0947 21.5483 14.4091 21.4506 14.7161 21.339C14.7947 21.3123 14.8663 21.2855 14.9409 21.2604C15.289 21.1262 15.6301 20.9744 15.9626 20.8053C15.9933 20.7896 16.0247 20.7762 16.0546 20.7605C16.8014 20.3722 17.5013 19.8997 18.1405 19.3521C18.1884 19.3104 18.2332 19.2665 18.2812 19.224C18.5432 18.994 18.791 18.7527 19.0247 18.5002C19.0891 18.431 19.152 18.361 19.2149 18.2903C19.4449 18.0315 19.6623 17.7621 19.8672 17.4823C19.8954 17.4438 19.9293 17.41 19.9568 17.3708C19.9604 17.3639 19.9636 17.3568 19.9662 17.3495C22.6771 13.5505 22.6771 8.44946 19.9662 4.65038ZM19.0695 6.13742C19.8211 7.37532 20.275 8.77085 20.3953 10.2141H15.6876C15.6299 9.2776 15.4826 8.34884 15.2475 7.44053C16.5773 7.19148 17.8645 6.75262 19.0695 6.13742ZM13.0036 1.78564C13.0476 1.79586 13.09 1.81 13.134 1.82022C13.4154 1.88626 13.6944 1.96169 13.9672 2.056C14.0088 2.07014 14.0497 2.08667 14.0906 2.10159C14.3609 2.19591 14.6273 2.30044 14.8883 2.41598C14.9339 2.43721 14.9787 2.46079 15.0243 2.48202C15.2742 2.60097 15.5184 2.72959 15.7568 2.86793L15.914 2.96303C16.1403 3.10136 16.3604 3.24937 16.5742 3.4071C16.6292 3.44716 16.6842 3.48571 16.7384 3.52968C16.948 3.68686 17.1487 3.85531 17.3404 4.03505C17.3907 4.08064 17.4426 4.12545 17.4921 4.1726C17.6933 4.36358 17.8851 4.56556 18.0706 4.77463C18.0942 4.80212 18.1193 4.82727 18.1429 4.85324C17.0787 5.3604 15.9513 5.72255 14.7909 5.92996C14.2533 4.45209 13.5431 3.04283 12.6751 1.73148C12.7843 1.7511 12.8959 1.7621 13.0036 1.78564ZM7.88868 10.2141C7.95067 9.36367 8.09545 8.52135 8.32096 7.69906C9.21145 7.80484 10.1074 7.85729 11.0042 7.85623C11.9018 7.85596 12.7986 7.80217 13.6897 7.6951C13.9148 8.51872 14.0588 9.36238 14.1196 10.2141H7.88868ZM14.1196 11.786C14.0576 12.6363 13.9129 13.4787 13.6873 14.3009C12.7969 14.1952 11.9009 14.1427 11.0041 14.1438C10.1066 14.1428 9.20984 14.1952 8.31857 14.3009C8.0937 13.4786 7.94974 12.6363 7.88863 11.786H14.1196ZM11.0041 2.08119C11.8985 3.34884 12.6342 4.7214 13.1946 6.16809C12.467 6.24536 11.7358 6.28419 11.0041 6.28442C10.2733 6.28354 9.54288 6.24449 8.81606 6.16731C9.37714 4.72158 10.1119 3.34949 11.0041 2.08119ZM3.93855 4.7738C4.12327 4.56473 4.3158 4.36275 4.517 4.17177C4.56651 4.12462 4.61841 4.07981 4.66869 4.03422C4.86257 3.85766 5.06326 3.6892 5.27072 3.52885C5.32497 3.48718 5.37995 3.45025 5.43498 3.40627C5.64875 3.24909 5.86883 3.10104 6.09517 2.9622L6.25235 2.8671C6.49075 2.72775 6.73492 2.59908 6.98484 2.48119C7.03043 2.45996 7.07523 2.43638 7.12082 2.41515C7.38175 2.29726 7.6482 2.19273 7.91857 2.10076C7.95942 2.08584 7.99718 2.06931 8.04194 2.05517C8.31465 1.96399 8.59211 1.88856 8.87505 1.81939C8.91907 1.80917 8.96149 1.79503 9.0063 1.78559C9.11396 1.76201 9.22559 1.75101 9.33482 1.73134C8.46648 3.04292 7.7561 4.45246 7.21827 5.93061C6.05783 5.72319 4.9304 5.36104 3.86625 4.85388C3.88983 4.82644 3.91498 4.80129 3.93855 4.7738ZM2.93883 6.13742C4.14357 6.75257 5.43047 7.19144 6.76006 7.44053C6.52525 8.34889 6.37811 9.27765 6.32073 10.2141H1.61297C1.73335 8.77085 2.18723 7.37532 2.93883 6.13742ZM2.93883 15.8626C2.18718 14.6247 1.7333 13.2292 1.61297 11.786H6.32073C6.37839 12.7225 6.52575 13.6512 6.76084 14.5595C5.43103 14.8085 4.14385 15.2474 2.93883 15.8626ZM9.00473 20.2144C8.9607 20.2041 8.91829 20.19 8.87427 20.1798C8.59289 20.1138 8.31387 20.0383 8.04116 19.944C7.99948 19.9299 7.95863 19.9133 7.91774 19.8984C7.64737 19.8041 7.38097 19.6996 7.12 19.584C7.07441 19.5628 7.0296 19.5392 6.98401 19.518C6.73409 19.399 6.48992 19.2704 6.25152 19.1321L6.09435 19.037C5.868 18.8986 5.64793 18.7506 5.43416 18.5929C5.37913 18.5528 5.32414 18.5143 5.26989 18.4703C5.06031 18.3132 4.85962 18.1447 4.66787 17.965C4.61758 17.9194 4.56568 17.8746 4.51617 17.8274C4.31498 17.6364 4.12322 17.4345 3.93773 17.2254C3.91415 17.1979 3.889 17.1727 3.86542 17.1468C4.92962 16.6396 6.057 16.2775 7.21744 16.07C7.75504 17.5479 8.46519 18.9572 9.33317 20.2685C9.22398 20.249 9.1124 20.2379 9.00473 20.2144ZM11.0041 19.9189C10.1097 18.6512 9.37411 17.2787 8.81371 15.832C10.2692 15.6753 11.7374 15.6753 13.1929 15.832L13.1922 15.8327C12.6312 17.2784 11.8964 18.6505 11.0041 19.9189ZM18.0698 17.2262C17.885 17.4353 17.6925 17.6373 17.4913 17.8282C17.4418 17.8754 17.3899 17.9202 17.3396 17.9658C17.1457 18.1429 16.945 18.3114 16.7376 18.4712C16.6833 18.5128 16.6284 18.5537 16.5733 18.5937C16.3596 18.7509 16.1395 18.899 15.9131 19.0378L15.756 19.1329C15.5181 19.2718 15.2739 19.4004 15.0235 19.5188C14.9779 19.54 14.9331 19.5636 14.8875 19.5849C14.6266 19.7027 14.3601 19.8073 14.0897 19.8992C14.0489 19.9142 14.0111 19.9307 13.9664 19.9448C13.6937 20.036 13.4162 20.1114 13.1333 20.1806C13.0892 20.1908 13.0468 20.205 13.002 20.2144C12.8943 20.238 12.7827 20.249 12.6735 20.2687C13.5415 18.9573 14.2517 17.5481 14.7892 16.0702C15.9497 16.2776 17.0771 16.6397 18.1412 17.1469C18.1185 17.1736 18.0933 17.1987 18.0698 17.2262ZM19.0695 15.8626C17.8647 15.2475 16.5778 14.8086 15.2482 14.5595C15.4831 13.6512 15.6302 12.7224 15.6876 11.786H20.3953C20.275 13.2292 19.8211 14.6247 19.0695 15.8626Z" fill="#82C29B"/>
</g>
<defs>
<clipPath id="clip0_165_95">
<rect width="22" height="22" fill="white"/>
</clipPath>
</defs>
</svg>
