<svg width="524" height="457" viewBox="0 0 524 457" fill="none" xmlns="http://www.w3.org/2000/svg"><path d="M524 440.082c0 7.674-111.317 16.058-244.73 16.058-133.412 0-242.211-6.963-242.211-14.637 0-7.673 486.941-9.094 486.941-1.421Z" fill="#D0DBFC"/><path d="M421.353 165.83s-10.208 4.263-24.333 14.068c-2.377 1.705-5.314 24.157-5.314 24.157s-2.377-19.61-3.636-18.615c-9.09 7.247-19.299 16.768-29.088 28.562-1.118 1.279 10.908 16.626 9.789 17.905-1.258 1.563-15.522-10.8-16.641-9.237-14.404 19.468-52.162 72.755-57.616 102.028l38.457 16.057c45.59 4.547 60.413-11.084 66.007-22.878.979-2.132-38.318-7.532-38.318-7.532s43.213-2.841 44.052-4.831c6.712-14.636 13.705-31.262 18.459-46.04.699-2.274-44.75-.284-44.191-2.416.28-.995 46.708-5.968 46.988-6.963 1.958-6.963 3.217-13.357 3.496-18.615.14-1.847-35.52.569-35.52.569s35.241-8.1 35.8-12.931c1.818-15.916-2.657-33.82-8.391-53.288Z" fill="#84C4E2"/><path d="m359.402 299.546 33.563-72.329c-.14-.852-.14-1.705-.28-2.558-.279-2.984-.699-5.826-.978-8.81-.839-7.247-1.259-14.494-2.098-21.741-1.119-8.668-1.399-8.526-1.399-8.526 1.119-.568 1.818 5.542 2.238 7.673.559 3.411.979 6.395 1.538 9.805.979 6.821 2.098 13.642 2.797 20.463l26.711-57.693s-13.565 33.962-26.151 63.519c.139 0 .139 0 .279-.142.979-.427 23.774-1.421 34.402-10.374l-.28 1.137c-10.488 10.516-34.681 11.937-35.52 12.079-4.196 9.947-5.734 13.073-10.069 22.593.559.143 1.259-.142 1.678-.142.979-.142 1.958-.284 2.797-.284l10.069-1.279c7.831-.994 15.662-1.563 23.354-2.415 1.818-.143 3.077-.143 3.077-.143s-7.692 1.706-12.726 2.558a7802.422 7802.422 0 0 0-22.935 3.837c-1.119.142-2.098.284-3.216.568-1.119.142-2.238.427-3.217 0-10.488 22.736-19.998 41.209-23.634 42.204Z" fill="#AEE4F4"/><path d="m404.852 305.514-48.526 2.842-.559 2.558s37.898-3.126 49.085-5.4Z" fill="#4E9DC4"/><path d="m358.983 214.002 25.871 32.967-2.936 6.252s-23.354-35.666-22.935-39.219Z" fill="#AEE4F4"/><path d="M84.746 126.611s12.726 6.821 29.788 20.888c2.936 2.416-1.958 52.719-1.958 52.719s11.187-45.898 12.726-44.335c11.327 10.8 23.773 24.868 35.241 41.778.699 1.136-8.95 15.915-8.111 17.052 18.319 27.851 44.191 49.45 48.106 91.085 0 0 2.657 25.436 0 23.731-2.797-1.705-71.321 54.282-71.321 54.282s-9.229-15.062-20.137-34.53c-1.399-2.558 26.43-15.631 24.892-18.331-1.119-1.847-31.465 6.394-32.584 4.547-11.048-20.32-22.095-42.772-26.57-57.408-.56-1.847 28.947-1.705 28.528-3.695-.559-2.273-31.885-9.094-31.885-9.094-3.636-15.915-6.013-34.53-5.174-55.419.28-2.131 39.996 6.11 39.996 6.11s-39.017-18.899-38.598-21.883c2.098-20.604 7.412-43.198 17.061-67.497Z" fill="#F7AB61"/><path d="M84.746 126.611s12.726 6.821 29.787 20.888c2.937 2.416-1.958 52.719-1.958 52.719s11.188-45.898 12.726-44.335c11.328 10.8 23.774 24.868 35.241 41.778.839 1.136-5.174 10.799-4.475 11.936 18.18 27.851 40.415 54.708 44.331 96.201 0 0 2.657 25.436 0 23.731-2.797-1.705-60.972-40.356-60.972-40.356l-54.68-162.562Z" fill="#FFC68D"/><path d="M84.746 126.611s40.835 132.721 45.31 145.51c1.119 3.126-56.498-6.11-58.455-6.679.14.142 57.616 19.041 59.574 9.947 10.768 30.836 13.145 28.846 17.9 30.552l-64.329-179.33Z" fill="#FFE2CF"/><path d="M80.97 203.06c.42 0 33.004 15.916 33.004 15.916l1.538 3.552-34.541-19.468ZM119.567 173.362l-8.39 32.54.419 3.695 7.971-36.235Z" fill="#FFE2CF"/><path d="M196.622 428.004c-8.95 8.668-39.016 4.263-61.811-4.831-5.314-2.132-11.887-5.116-19.299-9.237 4.755-.284 34.542-3.694 27.41-48.74-.28-1.989-24.333 23.446-27.969 48.456-9.789-5.542-19.718-12.221-34.822-26.715-3.496-3.41-14.963-16.768-21.536-27.425 4.475-2.274 24.613-13.499 35.8-43.767.7-1.847-34.401 9.663-36.639 42.346-5.873-9.805-11.188-20.889-15.243-33.535h.14c-.14-.285-.28-.711-.28-.995 0-.142-.14-.426-.14-.569v.569c-2.517-7.816-4.475-16.2-6.013-25.152 1.958-2.131 8.53-11.794 2.237-42.488-.42-1.847-10.348 14.21-4.055 38.367 1.538 10.089 3.636 19.468 6.293 28.136-28.249-22.594-40.695 0-40.695 0 15.803 6.395 38.318 1.847 40.835.284 4.195 13.358 9.65 25.152 15.802 35.525 0 0 2.098 3.411 2.517 3.979 6.713 10.515 14.125 19.468 21.816 26.999v.142h.14l.84.853c-33.564-7.532-54.54 6.252-54.54 6.252 25.032 16.341 51.603-.426 56.078-4.831 8.39 7.957 16.921 14.21 25.032 19.325 1.678.711 3.076 1.705 4.475 2.7a150.576 150.576 0 0 0 21.396 10.515c16.782 6.679 32.165 9.663 43.772 9.663 9.23 0 16.082-1.847 19.298-4.973l-.839-.853Z" fill="#82C29B"/><path d="M112.995 413.652c-23.913-10.373-47.827 4.689-47.827 4.689 23.494 13.784 42.373 1.563 47.827-3.979.979-.852 0-.568 0-.71ZM73.279 285.336c.7-1.847-27.41 7.958-31.046 37.798.14 0 .28.853.42 1.279 4.755-2.273 20.278-11.368 30.626-39.077ZM58.036 360.649c-27.829-23.589-46.568-3.411-46.568-3.411 16.082 8.1 41.394 6.679 47.547 5.116 0 0-.839-1.563-.979-1.705ZM108.94 340.471c-.28-1.99-21.816 24.441-26.57 48.598.139 0 .419.284.698.426 8.67-1.279 32.305-9.094 25.872-49.024Z" fill="#018893"/><path d="M332.691 355.533c7.272 6.963 31.605 3.126 49.925-4.263 4.335-1.705 9.649-4.263 15.523-7.673-3.776-.142-27.969-2.842-22.375-39.362.279-1.563 19.858 18.9 22.934 39.078 7.832-4.548 15.943-9.947 28.109-21.884 2.797-2.7 12.027-13.641 17.341-22.309-3.636-1.706-19.998-10.8-29.228-35.099-.559-1.563 27.969 7.531 29.927 34.104 4.755-7.958 8.95-17.052 12.167-27.283h-.14c.14-.284.14-.569.28-.853 0-.142.14-.284.14-.568v.426c1.957-6.394 3.635-13.073 4.754-20.32-1.538-1.705-6.992-9.521-2.097-34.388.279-1.563 8.53 11.51 3.496 31.12a152.776 152.776 0 0 1-4.895 22.878c22.655-18.189 32.864 0 32.864 0-12.726 5.257-30.906 1.705-33.004.568-3.356 10.8-7.691 20.462-12.586 28.846 0 0-1.678 2.842-1.958 3.269-5.314 8.526-11.327 15.773-17.62 22.025h-.14l-.699.71c27.13-6.252 44.191 4.832 44.191 4.832-20.138 13.357-41.814 0-45.45-3.553-6.712 6.395-13.705 11.653-20.138 15.773-1.258.569-2.517 1.279-3.636 2.274-6.572 3.979-12.586 6.679-17.34 8.668-13.565 5.542-26.012 7.958-35.381 8.1-7.412 0-13.006-1.421-15.663-3.979l.699-1.137Z" fill="#F7AB61"/><path d="M400.797 343.881c.559-.284 1.258-.71 1.958-.71.559 0 .559-.569.279-.853.28-.284.699-.426.979-.711l.14-.142c24.753-3.694 34.821 5.684 34.821 5.684-18.879 11.368-34.262 1.421-38.737-2.842.28-.284.42-.284.56-.426ZM431.703 239.438c-.56-1.421 22.235 6.252 25.451 30.409-.14 0-.14.711-.279.995-4.056-1.705-16.642-9.095-25.172-31.404ZM444.428 300.256c22.375-19.325 37.618-3.126 37.618-3.126-13.005 6.679-33.423 5.684-38.457 4.405 0 0 .699-1.136.839-1.279ZM403.034 284.199c.28-1.563 17.761 19.61 21.816 39.078-.14 0-.419.142-.559.426-6.992-.995-26.151-7.105-21.257-39.504Z" fill="#FFCDA4"/><path d="M491.695 441.077h-143.76c-8.811 0-15.943-7.247-15.943-16.199v-78.865c0-8.953 7.132-16.2 15.943-16.2h143.76c8.811 0 15.943 7.247 15.943 16.2v78.865c.14 8.81-6.992 16.199-15.943 16.199Z" fill="#82C29B"/><path d="M474.775 441.504H331.014c-8.811 0-15.943-7.248-15.943-16.2v-78.865c0-8.952 7.132-16.199 15.943-16.199h143.761c8.81 0 15.942 7.247 15.942 16.199v78.865c.14 8.952-7.132 16.2-15.942 16.2Z" fill="#A1E2B8"/><path d="M411.704 361.928h-27.13c-17.34 0-31.325-14.352-31.325-31.831 0-17.62 14.124-31.83 31.325-31.83h26.99c17.341 0 31.326 14.352 31.326 31.83.14 17.479-13.985 31.831-31.186 31.831Zm-27.13-50.161c-9.929 0-18.04 8.241-18.04 18.33 0 10.089 8.111 18.331 18.04 18.331h26.99c9.929 0 18.041-8.242 18.041-18.331 0-10.089-8.112-18.33-18.041-18.33h-26.99Z" fill="#82C29B"/><path d="M315.071 352.265c0-12.505 9.929-22.736 22.376-22.736h139.705c12.306 0 14.544 8.952 13.845 22.736H315.071Z" fill="#C3FCD5"/><path d="M427.088 385.516h-18.6v-15.915c0-3.126-2.517-5.684-5.594-5.684-3.076 0-5.593 2.558-5.593 5.684v15.915h-18.6c-3.076 0-5.594 2.558-5.594 5.684 0 3.127 2.518 5.684 5.594 5.684h18.6v22.026c0 3.126 2.517 5.684 5.593 5.684 3.077 0 5.594-2.558 5.594-5.684v-22.026h18.6c3.076 0 5.593-2.557 5.593-5.684 0-3.126-2.517-5.684-5.593-5.684Z" fill="#fff"/><path d="M325 441.219H155.228c-16.642 0-30.207-13.783-30.207-30.693V30.694C125.161 13.784 138.586 0 155.228 0H325c16.642 0 30.207 13.784 30.207 30.694v379.974c-.14 16.91-13.565 30.551-30.207 30.551Z" fill="#018893"/><path d="M287.522 22.878h-93.557c-5.593 0-10.069-4.547-10.069-10.231V5.968h113.695v6.679c0 5.684-4.475 10.231-10.069 10.231Z" fill="#018893"/><path d="M341.25 168.37c-21.816-13.401-50.68-41.483-66.634-43.666-18.031-2.485-70.863-42.838-68.786-18.671 6.827 79.276-21.37 68.51-21.37 68.51s24.784 19.424 50.235 20.403c25.452.903 54.539 3.99 80.436.527 25.822-3.464 46.376-22.586 46.376-22.586s-7.42 3.388-20.257-4.517Z" fill="#601402"/><path d="m251.614 194.644-46.525 17.768 28.271 178.277 81.029.075 26.49-178.352-43.927-16.036-45.338-1.732Z" fill="#0A75C4"/><path d="m210.803 341.226-3.71.151c1.855 1.129 3.71-.151 3.71-.151ZM192.178 212.337c-15.137 5.947-24.858 60.078-26.119 111.423l4.6 19.198 36.508-1.657c-2.597-1.505-5.269-7.378-3.636-26.651 2.82-33.502 2.003-46.903 2.003-46.903l33.095-72.5c-.075.075-35.914 12.949-46.451 17.09Z" fill="#fff"/><path d="M353.791 212.337c-10.389-4.518-46.303-17.015-46.303-17.015l33.095 72.5s.742 13.401 3.636 46.903c1.632 18.897 1.113 24.92.371 26.576l30.868 1.732 4.6-19.198c-1.41-51.345-12.688-105.475-26.267-111.498ZM344.441 341.301l-1.261-.075s.668 1.355 1.261.075Z" fill="#F0F1F1"/><path d="m204.718 422.685 1.039 18.22h138.09l.668-18.069-139.797-.151Z" fill="#343444"/><path d="m269.793 230.706 8.681.527 23.374-42.461-55.206 3.012 23.151 38.922Z" fill="#F7A96D"/><path d="m238.702 196.828 23.819 40.127 12.244-6.399-33.095-52.55-2.968 18.822Z" fill="#035693"/><path d="m273.577 230.556 12.244 6.399 22.409-38.546-1.484-20.403-33.169 52.55Z" fill="#035693"/><path d="m241.671 195.322-33.688 13.326-10.389 43.364s27.53 61.283 15.064 90.494c-12.689 29.813-16.177 68.284-16.548 98.399h79.842l2.226-108.487-36.507-137.096Z" fill="#fff"/><path d="m231.653 195.322-8.756 36.664 14.173 14.154-1.336 11.067 42.444 75.211-38.437-144.926-8.088 7.83Z" fill="#F0F1F1"/><path d="m212.954 388.882 30.201.075v-4.065h-30.201v3.99Z" fill="#D0D2D3"/><path d="m355.2 251.034-14.098-43.365-33.688-13.401-36.656 137.02.074 109.541h80.955c-.965-29.662-5.12-67.908-17.883-98.925-17.289-41.935 21.296-90.87 21.296-90.87Z" fill="#F0F1F1"/><path d="M278.475 347.023c-1.633 0-2.968 1.355-2.968 3.012 0 1.656 1.335 3.011 2.968 3.011 1.632 0 2.968-1.355 2.968-3.011 0-1.657-1.336-3.012-2.968-3.012ZM278.475 378.794c-1.633 0-2.968 1.355-2.968 3.011 0 1.656 1.335 3.012 2.968 3.012 1.632 0 2.968-1.356 2.968-3.012s-1.336-3.011-2.968-3.011ZM278.623 412.597c-1.632 0-2.968 1.355-2.968 3.011 0 1.657 1.336 3.012 2.968 3.012 1.633 0 2.968-1.355 2.968-3.012 0-1.656-1.335-3.011-2.968-3.011ZM303.927 388.957h30.2v-4.065h-30.2v4.065Z" fill="#D0D2D3"/><path d="m316.392 195.397-8.088-7.829-38.511 144.85 46.896-75.136-5.714-11.142 14.173-14.078-8.756-36.665Z" fill="#fff"/><path d="m241.299 327.675-2.745 10.314 100.915 19.95-2.968-11.895-95.202-18.369Z" fill="#D0D2D3"/><path d="M218.296 294.248c-1.484 3.312 3.859 6.775 3.859 6.775s-12.837-3.538-17.438-2.108c-4.6 1.431-7.197 7.228-7.865 11.293-.594 4.066 3.413 11.67 10.462 14.229 7.05 2.56 28.568 5.722 30.646 3.162 2.003-2.559 5.491-22.585 5.491-22.585l-17.215-11.82s-6.456-2.259-7.94 1.054Z" fill="#FFBA7F"/><path d="m351.639 317.436-109.226-18.219-5.936 34.481s99.431 19.724 122.508 23.564c23.077 3.84 20.851-38.546 20.851-38.546l-28.197-1.28Z" fill="#F0F1F1"/><path d="m209.392 348.529-2.523 9.862 103.142-20.176-1.559-10.54-99.06 20.854Z" fill="#D0D2D3"/><path d="M316.392 301.927c-12.54-.828-19.886 3.388-19.886 3.388s3.487 20.101 5.491 22.586c2.078 2.559 11.501-7.755 18.55-10.315 7.05-2.559 13.876-1.505 18.254-2.032 4.007-.452-10.907-12.799-22.409-13.627Z" fill="#FFBA7F"/><path d="m195.888 317.511-29.83 1.054s-2.226 42.537 20.851 38.697c23.077-3.84 122.508-23.565 122.508-23.565l-5.936-37.718-107.593 21.532Z" fill="#fff"/><path d="M212.434 308.627c-3.784.076-8.385-.753-9.794-2.559-.965-.904-1.633-4.292-1.559-8.809 0-9.034 2.301-22.36 3.636-32.975l-3.042-.377c-1.336 10.54-3.562 23.866-3.636 33.352 0 4.743.371 8.583 2.375 10.917 2.893 3.086 8.013 3.463 12.095 3.538 3.339 0 5.936-.301 6.01-.376l-.371-3.087c-.223.075-2.671.376-5.714.376Z" fill="#BBBDBF"/><path d="M216.144 306.82c-2.152.151-3.784 1.431-3.71 2.861.074 1.431 1.929 2.485 4.007 2.334 2.152-.15 3.784-1.43 3.636-2.861 0-1.43-1.781-2.484-3.933-2.334Z" fill="#57585A"/><path d="M246.345 264.51c1.187 10.615 3.264 24.016 3.264 32.975 0 4.517-.742 7.905-1.706 8.808-1.41 1.732-6.011 2.485-9.795 2.41-3.042 0-5.565-.377-5.565-.377l-.445 3.087s2.671.376 5.936.376c4.081-.075 9.127-.301 12.095-3.388 2.003-2.409 2.374-6.173 2.449-10.916.074-9.486-2.078-22.887-3.265-33.427l-2.968.452Z" fill="#BBBDBF"/><path d="M234.398 306.971c-2.152-.151-3.933.828-4.081 2.259-.148 1.43 1.484 2.71 3.636 2.936 2.152.15 3.933-.828 4.081-2.259.074-1.506-1.558-2.785-3.636-2.936ZM225.716 233.718c-13.95.075-24.487 14.605-24.561 31.921h4.007c0-7.905 2.449-14.982 6.233-19.951 3.785-5.044 8.83-7.905 14.247-7.905s10.463 3.012 14.173 8.056c3.71 5.044 6.084 12.196 6.01 20.026h4.007c.149-17.241-10.166-31.921-24.116-32.147Z" fill="#57585A"/><path d="M229.798 188.923c-3.71 4.893-6.975 11.217-8.162 17.842-.52 2.635-.668 7.228-.668 9.863v3.839c.148 4.216 1.41 15.133 1.41 15.208h3.784s-1.336-10.314-1.336-15.208v-3.839c0-2.409.149-6.851.594-9.185 1.039-5.872 4.007-11.745 7.42-16.186 3.339-4.518 7.346-7.604 9.646-8.131l-.89-3.765c-3.858 1.054-8.014 4.668-11.798 9.562ZM318.544 188.923c-3.784-4.894-7.865-8.508-11.798-9.486l-.965 3.764c2.301.527 6.307 3.614 9.647 8.131 3.413 4.517 6.381 10.314 7.42 16.186.445 2.334.593 5.27.593 8.583 0 13.175-2.968 30.566-2.968 30.566l3.785.678c0-.076 2.968-17.542 3.042-31.244 0-3.388-.223-6.625-.668-9.26-1.187-6.701-4.378-13.025-8.088-17.918Z" fill="#57585A"/><path d="M318.396 245.538c-7.642 0-13.875 6.324-13.875 14.078 0 7.755 6.233 14.079 13.875 14.079 7.643 0 13.876-6.324 13.876-14.079 0-7.754-6.233-14.078-13.876-14.078Z" fill="#929597"/><path d="M318.396 252.841c-3.71 0-6.678 3.011-6.678 6.775 0 3.765 2.968 6.776 6.678 6.776s6.678-3.011 6.678-6.776c0-3.764-2.968-6.775-6.678-6.775Z" fill="#D0D2D3"/><path d="M274.246 237.106c-1.262 0-2.226 1.054-2.226 2.258a2.248 2.248 0 0 0 2.226 2.259c1.261 0 2.226-1.054 2.226-2.259a2.248 2.248 0 0 0-2.226-2.258ZM274.246 258.186c-1.262 0-2.226 1.054-2.226 2.258a2.248 2.248 0 0 0 2.226 2.259c1.261 0 2.226-1.054 2.226-2.259 0-1.204-1.039-2.258-2.226-2.258ZM274.246 279.341c-1.262 0-2.226 1.054-2.226 2.259a2.248 2.248 0 0 0 2.226 2.258c1.261 0 2.226-1.054 2.226-2.258 0-1.205-1.039-2.259-2.226-2.259Z" fill="#035693"/><path d="M211.173 110.701c-6.159 1.957-4.749 12.045-4.749 15.81 0 3.764 5.194 17.09 8.608 18.52 8.756 3.689 8.756-10.239 8.756-10.239V118.53c0 .076-6.456-9.787-12.615-7.829ZM336.872 110.851c-6.159-1.957-12.688 7.905-12.688 7.905v16.262s0 14.38 8.755 10.239c3.414-1.581 8.608-14.756 8.608-18.52.074-3.84 1.484-13.928-4.675-15.886Z" fill="#FFBA7F"/><path d="M289.606 45.88h-30.72c-22.261 0-40.292 19.95-40.366 51.646v43.665c0 31.696 30.274 53.905 40.291 57.368 10.537 3.689 20.926 3.162 30.72 0 10.537-3.388 40.292-25.672 40.366-57.368V97.526c.075-31.696-18.031-51.646-40.291-51.646Z" fill="#FFBA7F"/><path d="M249.461 117.476c-3.635 0-6.604 3.238-6.604 7.228 0 3.99 2.969 7.227 6.604 7.227 3.636 0 6.604-3.237 6.604-7.227s-2.968-7.228-6.604-7.228ZM299.771 117.476c-3.636 0-6.604 3.238-6.604 7.228 0 3.99 2.968 7.227 6.604 7.227s6.604-3.237 6.604-7.227-2.968-7.228-6.604-7.228Z" fill="#221F1F"/><path d="M311.049 103.699c-10.908-2.484-15.657.377-17.957.753-2.003.376-8.31 2.71-7.346 4.517 1.855 3.313 9.572-.301 12.763-1.28 6.307-1.882 10.463-3.312 22.187 2.56 1.78.979-5.195-5.496-9.647-6.55ZM259.034 104.527c-2.301-.451-7.05-3.312-17.957-.752-4.452 1.054-11.427 7.528-9.647 6.625 11.724-5.873 15.88-4.517 22.187-2.56 3.191.979 10.982 4.592 12.763 1.28 1.039-1.882-5.343-4.216-7.346-4.593Z" fill="#601402"/><path d="M254.285 163.175c3.191 7.303 7.94 19.123 22.335 19.123 15.063 0 24.339-25.071 24.339-25.071-18.996 9.863-29.83 10.992-46.674 5.948Z" fill="#D15C58"/><path d="M258.069 164.229c1.188 4.291 6.753 6.098 17.957 5.195 14.841-1.13 18.106-5.12 19.961-9.787-11.947 6.022-28.271 6.926-37.918 4.592Z" fill="#fff"/><path d="M276.398 174.995s-2.82-2.409-6.159-2.409-9.572 2.258-9.572 2.258c2.894 4.292 8.088 7.454 15.508 7.454 9.276.075 14.989-8.131 14.989-8.131s-5.788-1.506-9.869-1.581c-2.597-.076-4.897 2.409-4.897 2.409Z" fill="#F88976"/><path d="M283.076 148.193c-5.714 5.195-13.876 3.614-16.325 0 0 0 2.374 9.411 8.162 9.11 5.788-.301 13.95-14.305 8.163-9.11Z" fill="#F69D5E"/><path d="M266.973 119.283s0 12.874-7.42 16.94c-5.936 3.237-22.483 2.936-27.009-1.657-4.527-4.592-6.456-16.864-6.456-16.864" stroke="#221F1F" stroke-width="2.662" stroke-miterlimit="10"/><path d="M226.533 118.907s16.399-12.347 41.776.602" stroke="#221F1F" stroke-width="5.753" stroke-miterlimit="10" stroke-linecap="round"/><path d="m227.275 121.015-14.618-10.841" stroke="#221F1F" stroke-width="5.202" stroke-miterlimit="10"/><path d="M282.334 119.283s0 12.949 7.42 17.015c5.936 3.237 22.558 2.936 27.158-1.732 4.527-4.667 6.456-16.939 6.456-16.939" stroke="#221F1F" stroke-width="2.662" stroke-miterlimit="10"/><path d="M280.998 119.584c29.013-13.476 42.221-.225 42.221-.225" stroke="#221F1F" stroke-width="5.775" stroke-miterlimit="10" stroke-linecap="round"/><path d="m322.18 121.015 14.618-10.841" stroke="#221F1F" stroke-width="5.202" stroke-miterlimit="10"/><path d="M267.79 122.521s4.23-2.108 7.198-2.108c3.561 0 6.604 1.731 6.604 1.731" stroke="#221F1F" stroke-width="3.852" stroke-miterlimit="10" stroke-linecap="square"/><path d="M343.921 74.187c-8.607-33.577-44.596-46.602-50.383-48.108-25.526-6.399-39.624.527-39.624.527s-18.032 5.421-22.632 17.166c-12.689.225-18.996 9.937-23.745 16.864-19.144 28.006-9.572 52.097-5.343 88.762 2.672 23.188-14.321 23.338-17.66 25.145 0 0 33.688 13.702 36.73 10.239 3.562-4.141-13.504-24.317-13.059-44.193.074-3.162 20.48-26.35 30.497-68.209 0 0 20.999 26.275 68.786 24.318-6.011-6.55-8.237-19.8-8.237-19.8s14.099 20.703 28.568 31.77c7.569 37.041-14.395 76.867-4.971 75.135 10.24-1.882 19.07-4.291 38.733-10.991-44.67-9.562-1.632-35.761-17.66-98.625Z" fill="#601402"/></svg>