<svg width="30" height="39" viewBox="0 0 30 39" fill="none" xmlns="http://www.w3.org/2000/svg"><path fill-rule="evenodd" clip-rule="evenodd" d="M1.476 18.305c-.607.989-.863 4.104-.654 6.17.074.684.196 1.252.372 1.592.242.47.651.75 1.118.765.299.017.484-.036 6.098-1.87 0 0 2.495-.808 2.506-.814.622-.159 1.04-.74 1.082-1.484.04-.76-.348-1.434-.985-1.676 0 0-1.758-.729-1.762-.729-6.033-2.528-6.303-2.628-6.608-2.631-.465-.018-.881.22-1.167.677Zm13.496 18.837c.098-.286.11-.484.126-6.477l.015-2.676c.04-.647-.371-1.237-1.05-1.504-.697-.272-1.447-.104-1.868.43 0 0-1.23 1.485-1.235 1.485-4.229 5.043-4.402 5.276-4.506 5.575a1.215 1.215 0 0 0-.066.55c.025.266.143.532.341.777.98 1.185 5.68 2.942 7.18 2.682.523-.097.9-.395 1.063-.842Zm9.533-2.085c1.417-.574 4.51-4.57 4.728-6.107.074-.535-.09-.997-.454-1.29-.236-.182-.42-.253-6.03-2.123 0 0-2.46-.827-2.493-.842-.594-.234-1.276-.02-1.732.557-.474.588-.548 1.36-.169 1.949l.991 1.637c3.332 5.497 3.586 5.885 3.826 6.075.37.297.842.346 1.333.144Zm-2.897-14.149c6.376-1.568 6.623-1.652 6.875-1.82.385-.262.579-.705.546-1.244 0-.018.003-.035 0-.055-.163-1.589-2.909-5.728-4.26-6.4-.478-.233-.958-.217-1.353.053-.246.164-.43.41-3.843 5.152 0 0-1.543 2.137-1.56 2.157-.409.501-.412 1.223-.016 1.84.41.64 1.107.95 1.744.771 0 0-.026.045-.034.055.315-.123.878-.262 1.901-.509Zm-6.403-5.349c-.109-2.566-.868-14-.958-14.53-.131-.478-.498-.822-1.03-.958-1.626-.411-7.847 1.362-9 2.57-.37.393-.509.877-.398 1.303.18.38 7.891 12.702 7.891 12.702 1.14 1.877 2.07 1.586 2.373 1.49.303-.096 1.227-.387 1.122-2.577Z" fill="#D32200"/></svg>